<?xml version="1.0" standalone="no"?>
<!DOCTYPE svg PUBLIC "-//W3C//DTD SVG 1.1//EN" "http://www.w3.org/Graphics/SVG/1.1/DTD/svg11.dtd" >
<svg xmlns="http://www.w3.org/2000/svg" xmlns:xlink="http://www.w3.org/1999/xlink" version="1.1">
<metadata></metadata>
<defs>
<font id="ibm_plex_monoextralight" horiz-adv-x="1228" >
<font-face units-per-em="2048" ascent="1597" descent="-451" />
<missing-glyph horiz-adv-x="500" />
<glyph horiz-adv-x="0" />
<glyph horiz-adv-x="682" />
<glyph unicode=" " />
<glyph unicode="!" d="M526 59v21q0 72 88 72t88 -72v-21q0 -71 -88 -71t-88 71zM575 889v541h78v-541l-22 -500h-33z" />
<glyph unicode="&#x22;" d="M432 991v525h74v-525h-74zM723 991v525h74v-525h-74z" />
<glyph unicode="#" d="M43 479v62h326l61 348h-315v61h325l84 480h70l-252 -1430h-70l84 479h-313zM637 0l252 1430h69l-84 -480h314v-61h-326l-61 -348h315v-62h-325l-84 -479h-70z" />
<glyph unicode="$" d="M127 213l57 45q80 -104 174.5 -157.5t239.5 -57.5v657l-68 11q-366 62 -366 376q0 175 115.5 268.5t318.5 98.5v207h61v-207q278 -14 414 -207l-57 -43q-60 85 -146 130t-211 52v-622l62 -10q86 -15 151.5 -43.5t106.5 -64t67 -82t36 -93.5t10 -102q0 -182 -115 -283.5 t-318 -110.5v-206h-61v206q-167 4 -277.5 66t-193.5 172zM238 1087q0 -73 23 -128t67 -90t97.5 -56t125.5 -33l47 -8v614q-172 -3 -266 -79t-94 -220zM659 43q170 6 264.5 89.5t94.5 234.5q0 79 -24 136.5t-70 93t-100 55.5t-126 32l-39 6v-647z" />
<glyph unicode="%" d="M53 0l357 614h67l-356 -614h-68zM63 1108q0 173 80.5 259.5t208.5 86.5t208.5 -86.5t80.5 -259.5q0 -174 -80.5 -261t-208.5 -87t-208.5 87t-80.5 261zM131 1073q0 -129 63 -194.5t158 -65.5t158 65.5t63 194.5v68q0 129 -63 194.5t-158 65.5t-158 -65.5t-63 -194.5v-68z M588 322q0 174 80.5 261t208.5 87t208 -87t80 -261q0 -173 -80 -260t-208 -87t-208.5 87t-80.5 260zM655 289q0 -129 63.5 -194.5t158.5 -65.5t158 65.5t63 194.5v67q0 129 -63 194.5t-158 65.5t-158.5 -65.5t-63.5 -194.5v-67zM752 815l356 615h68l-357 -615h-67z" />
<glyph unicode="&#x26;" d="M78 360q0 292 280 431q-141 166 -141 333q0 147 91.5 238.5t236.5 91.5q117 0 198.5 -57.5t120.5 -145.5l-61 -30q-37 77 -102 123.5t-158 46.5q-117 0 -184.5 -69.5t-67.5 -188.5v-25q0 -132 139 -297l410 -483h6q20 62 29 149t20 266h227v-63h-164q-11 -155 -25 -245 t-42 -161l233 -274h-86l-188 219h-6q-51 -113 -149.5 -178.5t-231.5 -65.5q-180 0 -282.5 106.5t-102.5 278.5zM154 340q0 -129 87 -214t234 -85q115 0 202.5 57.5t135.5 157.5l-418 489q-241 -126 -241 -362v-43z" />
<glyph unicode="'" d="M578 991v525h73v-525h-73z" />
<glyph unicode="(" d="M471 637q0 295 116 534t300 385h80q-190 -146 -308 -376t-118 -496v-94q0 -266 118 -496.5t308 -376.5h-80q-184 146 -300 385.5t-116 534.5z" />
<glyph unicode=")" d="M262 -283q190 146 308 376.5t118 496.5v94q0 266 -118 496t-308 376h80q184 -146 300 -385t116 -534t-116 -534.5t-300 -385.5h-80z" />
<glyph unicode="*" d="M96 713l19 61l467 -147v497h67v-497l465 147l21 -61l-465 -150l307 -420l-53 -39l-310 424l-307 -424l-55 39l307 420z" />
<glyph unicode="+" d="M127 594v63h453v467h69v-467h453v-63h-453v-467h-69v467h-453z" />
<glyph unicode="," d="M459 -338l108 526h129l-178 -526h-59z" />
<glyph unicode="-" d="M338 588v71h553v-71h-553z" />
<glyph unicode="." d="M526 59v21q0 72 88 72t88 -72v-21q0 -71 -88 -71t-88 71z" />
<glyph unicode="/" d="M207 -283l749 1839h66l-750 -1839h-65z" />
<glyph unicode="0" d="M137 715q0 377 120 558t357 181t357.5 -181t120.5 -558q0 -740 -478 -740q-237 0 -357 181.5t-120 558.5zM219 637q0 -293 99.5 -443.5t295.5 -150.5t296 151t100 443v156q0 292 -100 442.5t-296 150.5t-295.5 -150t-99.5 -443v-156zM545 702v25q0 55 69 55q70 0 70 -55 v-25q0 -55 -70 -55q-69 0 -69 55z" />
<glyph unicode="1" d="M123 1143l495 287h82v-1362h420v-68h-934v68h441v1288l-473 -273z" />
<glyph unicode="2" d="M168 1133q41 146 149 233.5t285 87.5q194 0 299 -107t105 -294q0 -137 -64 -256t-192 -244l-498 -485h823v-68h-905v76l535 526q221 218 221 422v53q0 139 -84.5 224t-241.5 85q-278 0 -364 -274z" />
<glyph unicode="3" d="M133 201l57 41q66 -101 159 -150t229 -49q161 0 259.5 86.5t98.5 228.5v48q0 142 -96.5 226.5t-264.5 84.5h-190v65h184q152 0 245 79.5t93 205.5v41q0 126 -88.5 202t-230.5 76q-245 0 -342 -196l-60 35q49 104 150.5 166.5t253.5 62.5q178 0 287.5 -96.5t109.5 -259.5 q0 -143 -77.5 -229.5t-207.5 -112.5v-8q143 -19 229.5 -114t86.5 -249q0 -187 -119.5 -298.5t-320.5 -111.5q-300 0 -445 226z" />
<glyph unicode="4" d="M90 317v68l709 1045h100v-1051h234v-62h-234v-317h-72v317h-737zM160 379h667v975h-6z" />
<glyph unicode="5" d="M166 201l59 41q66 -102 157.5 -150.5t225.5 -48.5q169 0 265 96.5t96 255.5v47q0 160 -92 254.5t-259 94.5q-118 0 -188.5 -33t-134.5 -107l-70 11l51 768h719v-68h-657l-47 -651h8q60 76 139 110.5t193 34.5q194 0 306 -115t112 -317q0 -206 -119.5 -327.5 t-321.5 -121.5q-293 0 -442 226z" />
<glyph unicode="6" d="M168 477q0 165 43 313.5t120.5 266t173.5 209.5t212 164h102q-250 -161 -387 -346t-182 -435l6 -2q54 105 148.5 160t222.5 55q196 0 314 -117.5t118 -318.5q0 -203 -121.5 -327t-323.5 -124q-113 0 -199.5 37.5t-140 105.5t-80 158.5t-26.5 200.5zM246 397 q0 -158 99 -257t267 -99q169 0 268 98t99 254v53q0 156 -98.5 253.5t-268.5 97.5t-268 -97.5t-98 -253.5v-49z" />
<glyph unicode="7" d="M152 1040v390h907v-68l-602 -1362h-80l604 1364h-758v-324h-71z" />
<glyph unicode="8" d="M139 373q0 149 83 246.5t227 125.5v11q-122 28 -192.5 117.5t-70.5 222.5q0 165 115 261.5t313 96.5t313 -96.5t115 -261.5q0 -133 -70 -222.5t-192 -117.5v-11q144 -28 227 -125.5t83 -246.5q0 -179 -128 -288.5t-348 -109.5t-347.5 109.5t-127.5 288.5zM219 354 q0 -141 107.5 -227t287.5 -86t288 86.5t108 226.5v52q0 140 -108 226.5t-288 86.5t-287.5 -86t-107.5 -227v-52zM266 1063q0 -128 94.5 -204.5t253.5 -76.5t254 76.5t95 204.5v45q0 128 -95 204.5t-254 76.5t-253.5 -76.5t-94.5 -204.5v-45z" />
<glyph unicode="9" d="M174 1004q0 203 121 326.5t323 123.5q113 0 200 -37.5t141 -105.5t81 -158.5t27 -200.5q0 -165 -43.5 -313.5t-121.5 -265.5t-174 -209t-212 -164h-102q250 161 387 345.5t184 434.5l-8 2q-54 -105 -148 -160t-221 -55q-198 0 -316 118t-118 319zM254 983 q0 -155 99 -252.5t268 -97.5q170 0 268 97t98 253v49q0 158 -99 257.5t-267 99.5q-169 0 -268 -98t-99 -255v-53z" />
<glyph unicode=":" d="M526 59v21q0 72 88 72t88 -72v-21q0 -71 -88 -71t-88 71zM526 977v20q0 72 88 72t88 -72v-20q0 -72 -88 -72t-88 72z" />
<glyph unicode=";" d="M459 -338l108 526h129l-178 -526h-59zM526 977v20q0 72 88 72t88 -72v-20q0 -72 -88 -72t-88 72z" />
<glyph unicode="&#x3c;" d="M174 592v65l881 525v-76l-809 -477v-6l809 -480v-75z" />
<glyph unicode="=" d="M127 408v63h975v-63h-975zM127 782v64h975v-64h-975z" />
<glyph unicode="&#x3e;" d="M174 68v75l809 478v6l-809 479v76l881 -525v-65z" />
<glyph unicode="?" d="M195 1139q42 149 151 232t279 83q185 0 292 -101t107 -270q0 -179 -111.5 -285.5t-304.5 -127.5v-291h-73v346q194 4 302.5 92.5t108.5 237.5v47q0 132 -86 209.5t-237 77.5q-282 0 -361 -271zM483 59v21q0 33 23 52.5t67 19.5q43 0 66 -19.5t23 -52.5v-21q0 -33 -23 -52 t-66 -19q-45 0 -67.5 19t-22.5 52z" />
<glyph unicode="@" d="M176 604q0 307 45.5 492.5t141.5 271.5t253 86q90 0 161 -27t116.5 -73t75.5 -111.5t42.5 -138t12.5 -156.5v-755h-66v120h-8q-61 -139 -215 -139q-282 0 -282 426t282 426q154 0 215 -137h8v59q0 99 -18 177.5t-57 140t-106 94.5t-159 33q-198 0 -285 -169.5t-87 -553.5 v-133q0 -131 10.5 -231t38 -190.5t73.5 -149t120.5 -92.5t175.5 -34h292v-59h-292q-98 0 -174 24.5t-129 75t-89.5 118.5t-57.5 164t-29.5 201t-8.5 240zM522 561q0 -330 230 -330q95 0 150.5 59.5t55.5 160.5v299q0 101 -55.5 160t-150.5 59q-230 0 -230 -328v-80z" />
<glyph unicode="A" d="M96 0l469 1430h101l467 -1430h-78l-152 463h-577l-152 -463h-78zM344 528h541l-267 820h-10z" />
<glyph unicode="B" d="M197 0v1430h460q166 0 258.5 -95t92.5 -270q0 -260 -205 -326v-4q129 -26 197.5 -116t68.5 -236q0 -173 -96 -278t-266 -105h-510zM270 68h424q143 0 219 76.5t76 193.5v86q0 117 -76.5 194.5t-218.5 77.5h-424v-628zM270 760h383q132 0 203.5 73.5t71.5 186.5v84 q0 113 -71 185.5t-204 72.5h-383v-602z" />
<glyph unicode="C" d="M158 715q0 378 128 558.5t380 180.5q150 0 252.5 -79.5t152.5 -215.5l-65 -26q-41 119 -127 186t-213 67q-210 0 -318 -150.5t-108 -442.5v-156q0 -292 108 -443t318 -151q127 0 213 67.5t127 186.5l65 -27q-50 -136 -152.5 -215.5t-252.5 -79.5q-252 0 -380 181 t-128 559z" />
<glyph unicode="D" d="M215 0v1430h379q255 0 375.5 -178t120.5 -537t-120.5 -537t-375.5 -178h-379zM289 68h305q210 0 312 147.5t102 423.5v152q0 276 -102 423.5t-312 147.5h-305v-1294z" />
<glyph unicode="E" d="M213 0v1430h842v-68h-768v-602h741v-68h-741v-624h768v-68h-842z" />
<glyph unicode="F" d="M213 0v1430h854v-68h-780v-602h721v-68h-721v-692h-74z" />
<glyph unicode="G" d="M143 713q0 380 125 560.5t369 180.5q149 0 252 -80t151 -215l-65 -26q-41 119 -126.5 186t-209.5 67q-204 0 -309 -150.5t-105 -442.5v-154q0 -292 103.5 -445t306.5 -153q160 0 254 101.5t94 263.5v190h-350v63h422v-659h-72v207h-8q-22 -53 -48.5 -91.5t-66.5 -72 t-99.5 -51t-135.5 -17.5q-482 0 -482 738z" />
<glyph unicode="H" d="M193 0v1430h73v-672h697v672h73v-1430h-73v692h-697v-692h-73z" />
<glyph unicode="I" d="M184 0v61h394v1307h-394v62h860v-62h-393v-1307h393v-61h-860z" />
<glyph unicode="J" d="M186 256l72 16q26 -107 103 -168t206 -61q149 0 231.5 90.5t82.5 259.5v969h-566v68h639v-1047q0 -191 -106 -299.5t-283 -108.5q-151 0 -251 74.5t-128 206.5z" />
<glyph unicode="K" d="M211 0v1430h74v-848h4l260 295l489 553h90l-532 -605l541 -825h-88l-506 770l-258 -289v-481h-74z" />
<glyph unicode="L" d="M287 0v1430h73v-1362h725v-68h-798z" />
<glyph unicode="M" d="M166 0v1430h102l344 -779h9l342 779h100v-1430h-70v1319h-8l-371 -834l-370 834h-8v-1319h-70z" />
<glyph unicode="N" d="M193 0v1430h106l659 -1328h9v1328h69v-1430h-106l-660 1331h-8v-1331h-69z" />
<glyph unicode="O" d="M137 715q0 377 120 558t357 181t357.5 -181t120.5 -558q0 -740 -478 -740q-237 0 -357 181.5t-120 558.5zM219 637q0 -293 99.5 -443.5t295.5 -150.5t296 151t100 443v156q0 292 -100 442.5t-296 150.5t-295.5 -150t-99.5 -443v-156z" />
<glyph unicode="P" d="M213 0v1430h504q178 0 273 -104.5t95 -287.5t-95 -288t-273 -105h-430v-645h-74zM287 713h430q140 0 214.5 79.5t74.5 200.5v90q0 120 -75 199.5t-214 79.5h-430v-649z" />
<glyph unicode="Q" d="M137 715q0 377 120 558t357 181t357.5 -181t120.5 -558q0 -710 -441 -738v-204h330v-66h-301q-51 0 -76.5 27t-25.5 76v167q-219 14 -330 194.5t-111 543.5zM219 637q0 -293 99.5 -443.5t295.5 -150.5t296 151t100 443v156q0 292 -100 442.5t-296 150.5t-295.5 -150 t-99.5 -443v-156z" />
<glyph unicode="R" d="M213 0v1430h504q178 0 273 -104.5t95 -287.5q0 -178 -91.5 -281.5t-262.5 -107.5h-59l409 -649h-86l-405 647h-303v-647h-74zM287 713h430q140 0 214.5 79.5t74.5 200.5v90q0 120 -75 199.5t-214 79.5h-430v-649z" />
<glyph unicode="S" d="M125 213l57 45q83 -108 183.5 -162.5t255.5 -54.5q187 0 289 84.5t102 243.5q0 78 -24 135.5t-69.5 92.5t-99.5 55t-127 32l-164 27q-366 60 -366 374q0 182 120.5 275.5t331.5 93.5q312 0 453 -203l-55 -47q-65 93 -161 139t-241 46q-177 0 -274.5 -76.5t-97.5 -225.5 q0 -142 82 -212.5t233 -94.5l162 -26q372 -62 372 -383q0 -191 -124 -293.5t-342 -102.5q-178 0 -294.5 62t-201.5 176z" />
<glyph unicode="T" d="M76 1362v68h1077v-68h-502v-1362h-73v1362h-502z" />
<glyph unicode="U" d="M193 571v859h73v-869q0 -152 14.5 -245.5t53.5 -157.5t106 -89.5t174 -25.5t174 25.5t106.5 89.5t54 157.5t14.5 245.5v869h73v-859q0 -171 -19 -280.5t-68 -182.5t-129 -103t-206 -30t-206 30t-128.5 103t-67.5 182t-19 281z" />
<glyph unicode="V" d="M102 1430h82l428 -1350h6l431 1350h77l-460 -1430h-103z" />
<glyph unicode="W" d="M109 1430h67l125 -1354h10l260 932h88l261 -932h10l125 1354h65l-131 -1430h-119l-252 911h-8l-252 -911h-118z" />
<glyph unicode="X" d="M90 0l481 725l-462 705h90l415 -639h7l417 639h84l-460 -699l479 -731h-88l-435 668h-6l-438 -668h-84z" />
<glyph unicode="Y" d="M51 1430h86l475 -760h6l476 760h84l-527 -838v-592h-73v592z" />
<glyph unicode="Z" d="M98 0v72l906 1290h-861v68h942v-72l-905 -1290h950v-68h-1032z" />
<glyph unicode="[" d="M524 -283v1839h506v-57h-442v-1724h442v-58h-506z" />
<glyph unicode="\" d="M207 1556h65l750 -1839h-66z" />
<glyph unicode="]" d="M199 -225h442v1724h-442v57h506v-1839h-506v58z" />
<glyph unicode="^" d="M129 674l446 756h78l447 -756l-60 -31l-424 719h-6l-424 -719z" />
<glyph unicode="_" d="M123 -238h983v-65h-983v65z" />
<glyph unicode="`" d="M406 1532l65 35l215 -324l-49 -26z" />
<glyph unicode="a" d="M154 274q0 142 96 220.5t319 78.5h289v152q0 146 -77.5 219.5t-217.5 73.5q-113 0 -196 -47.5t-125 -143.5l-54 35q45 101 140.5 160t236.5 59q171 0 268 -92t97 -256v-670h168v-63h-148q-87 0 -90 86v76h-8q-40 -85 -125 -136t-219 -51q-169 0 -261.5 78t-92.5 221z M231 244q0 -98 77 -152.5t206 -54.5q146 0 245 71t99 195v213h-287q-340 0 -340 -211v-61z" />
<glyph unicode="b" d="M242 0v1516h71v-621h6q40 81 124.5 133.5t205.5 52.5q202 0 314 -142.5t112 -410.5t-112 -410.5t-314 -142.5q-121 0 -205.5 53t-124.5 134h-6v-162h-71zM313 303q0 -116 94.5 -190t225.5 -74q173 0 268.5 115t95.5 315v119q0 200 -95.5 315t-268.5 115 q-131 0 -225.5 -74t-94.5 -190v-451z" />
<glyph unicode="c" d="M213 528q0 267 116.5 410t327.5 143q137 0 231 -63t134 -170l-61 -25q-35 94 -113.5 144.5t-190.5 50.5q-175 0 -270.5 -115.5t-95.5 -314.5v-119q0 -199 95.5 -314.5t270.5 -115.5q117 0 198.5 54t125.5 151l55 -33q-44 -104 -142 -170t-237 -66q-212 0 -328 143 t-116 410z" />
<glyph unicode="d" d="M154 528q0 268 112 410.5t314 142.5q121 0 205 -52.5t124 -133.5h6v621h72v-1516h-72v162h-6q-41 -81 -124.5 -134t-204.5 -53q-202 0 -314 142.5t-112 410.5zM231 469q0 -200 96 -315t269 -115q131 0 225 74t94 190v451q0 116 -94 190t-225 74q-173 0 -269 -115 t-96 -315v-119z" />
<glyph unicode="e" d="M176 528q0 265 117.5 409t324.5 144q209 0 324 -143.5t115 -386.5v-29h-803v-53q0 -199 98.5 -314.5t276.5 -115.5q258 0 350 237l57 -30q-47 -126 -152 -198.5t-255 -72.5q-214 0 -333.5 143.5t-119.5 409.5zM254 580h727v10q0 199 -96 314.5t-267 115.5t-267.5 -116.5 t-96.5 -315.5v-8z" />
<glyph unicode="f" d="M166 993v64h407v356q0 103 101 103h424v-64h-455v-395h455v-64h-455v-930h408v-63h-865v63h387v930h-407z" />
<glyph unicode="g" d="M174 -168q0 176 199 238v10q-107 36 -107 139q0 70 49.5 114.5t128.5 67.5v7q-91 40 -140.5 122t-49.5 197q0 160 99.5 257t267.5 97q132 0 223 -63v67q0 76 76 76h219v-63h-246v-119q96 -96 96 -252q0 -161 -101.5 -258.5t-266.5 -97.5q-55 0 -111 12 q-178 -44 -178 -154q0 -104 176 -104h266q177 0 261.5 -66t84.5 -186q0 -307 -499 -307q-229 0 -338 70t-109 196zM248 -160q0 -99 83 -156t230 -57h115q175 0 275 60.5t100 181.5q0 92 -65 140t-216 48h-328q-194 -55 -194 -217zM332 690q0 -115 77 -187.5t212 -72.5 q137 0 213.5 72t76.5 188v74q0 114 -76.5 186t-213.5 72q-136 0 -212.5 -72t-76.5 -186v-74z" />
<glyph unicode="h" d="M246 0v1516h71v-615h7q33 78 112 129t207 51q172 0 265 -102t93 -293v-686h-71v674q0 344 -303 344q-129 0 -219.5 -68.5t-90.5 -193.5v-756h-71z" />
<glyph unicode="i" d="M233 0v63h412v930h-412v64h484v-994h385v-63h-869zM604 1448v18q0 62 76 62t76 -62v-18q0 -62 -76 -62t-76 62z" />
<glyph unicode="j" d="M195 993v64h682v-1364q0 -103 -101 -103h-553v64h582v1339h-610zM766 1448v18q0 62 76 62t76 -62v-18q0 -62 -76 -62t-76 62z" />
<glyph unicode="k" d="M268 0v1516h72v-1041h6l229 203l433 379h92l-467 -414l522 -643h-88l-489 598l-238 -207v-391h-72z" />
<glyph unicode="l" d="M180 0v63h400v1389h-400v64h471v-1453h398v-63h-869z" />
<glyph unicode="m" d="M141 0v1057h68v-125h6q57 149 215 149q87 0 139.5 -43.5t67.5 -124.5h4q59 168 229 168q220 0 220 -282v-799h-68v788q0 120 -42 176t-128 56q-88 0 -145.5 -61t-57.5 -175v-784h-67v788q0 120 -42 176t-128 56q-87 0 -145 -61.5t-58 -174.5v-784h-68z" />
<glyph unicode="n" d="M246 0v1057h71v-156h7q33 78 112 129t207 51q172 0 265 -102t93 -293v-686h-71v674q0 344 -303 344q-129 0 -219.5 -68.5t-90.5 -193.5v-756h-71z" />
<glyph unicode="o" d="M172 528q0 266 116.5 409.5t325.5 143.5t326 -143.5t117 -409.5t-117 -409.5t-326 -143.5t-325.5 143.5t-116.5 409.5zM250 473q0 -205 95.5 -319.5t268.5 -114.5t269 115t96 319v111q0 204 -96 319t-269 115t-268.5 -114.5t-95.5 -319.5v-111z" />
<glyph unicode="p" d="M242 -410v1467h71v-162h6q40 81 124.5 133.5t205.5 52.5q202 0 314 -142.5t112 -410.5t-112 -410.5t-314 -142.5q-121 0 -205.5 53t-124.5 134h-6v-572h-71zM313 303q0 -116 94.5 -190t225.5 -74q173 0 268.5 115t95.5 315v119q0 200 -95.5 315t-268.5 115 q-131 0 -225.5 -74t-94.5 -190v-451z" />
<glyph unicode="q" d="M154 528q0 268 112 410.5t314 142.5q121 0 205 -52.5t124 -133.5h6v162h72v-1467h-72v572h-6q-41 -81 -124.5 -134t-204.5 -53q-202 0 -314 142.5t-112 410.5zM231 469q0 -200 96 -315t269 -115q131 0 225 74t94 190v451q0 116 -94 190t-225 74q-173 0 -269 -115 t-96 -315v-119z" />
<glyph unicode="r" d="M162 0v63h352v930h-352v64h424v-180h6q88 180 323 180h226v-68h-238q-136 0 -226.5 -68t-90.5 -190v-668h450v-63h-874z" />
<glyph unicode="s" d="M174 184l51 43q79 -98 181 -144t239 -46q160 0 253 63t93 185q0 54 -18 91.5t-55 61t-81.5 36.5t-109.5 22l-164 22q-62 9 -106 19.5t-90.5 31t-75.5 48.5t-47.5 72t-18.5 102q0 76 30 133t84 90.5t122.5 50t150.5 16.5q254 0 412 -166l-49 -49q-61 70 -146 112t-219 42 q-148 0 -230.5 -55.5t-82.5 -169.5q0 -101 65 -145.5t199 -63.5l166 -25q60 -8 104.5 -18.5t90.5 -31t75 -48t47.5 -72t18.5 -102.5q0 -154 -115 -234t-303 -80q-299 0 -471 209z" />
<glyph unicode="t" d="M76 993v64h330q37 0 53 16t16 51v306h70v-373h526v-64h-526v-930h526v-63h-498q-100 0 -100 102v891h-397z" />
<glyph unicode="u" d="M227 371v686h72v-674q0 -344 303 -344q129 0 219 68.5t90 193.5v756h72v-1057h-72v156h-6q-33 -78 -112 -129.5t-207 -51.5q-172 0 -265.5 102.5t-93.5 293.5z" />
<glyph unicode="v" d="M176 1057h74l362 -987h6l363 987h72l-394 -1057h-90z" />
<glyph unicode="w" d="M74 1057h65l176 -994h9l245 994h93l245 -994h8l177 994h63l-190 -1057h-103l-241 985h-9l-245 -985h-103z" />
<glyph unicode="x" d="M168 0l403 532l-395 525h86l352 -469h4l353 469h82l-396 -522l404 -535h-88l-359 479h-4l-358 -479h-84z" />
<glyph unicode="y" d="M156 1057h75l381 -930h6l381 930h74l-577 -1395q-29 -72 -113 -72h-197v64h234l158 381z" />
<glyph unicode="z" d="M201 0v70l729 923h-709v64h787v-70l-729 -924h749v-63h-827z" />
<glyph unicode="{" d="M231 608v58h146q328 0 328 180q0 35 -16 69t-60 89q-1 2 -14 18t-17 21.5t-16 23.5t-17 30t-14 33.5t-12.5 41.5t-7 46.5t-3.5 55.5v196q0 86 86 86h383v-57h-403v-223q0 -63 14.5 -113.5t28.5 -72t37 -49.5q4 -5 6 -7q49 -63 69.5 -104.5t20.5 -85.5q0 -88 -66 -142 t-174 -63v-4q108 -9 174 -63t66 -142q0 -44 -20.5 -85.5t-69.5 -104.5q-43 -54 -58 -89q-28 -64 -28 -153v-223h403v-58h-383q-86 0 -86 86v197q0 29 3.5 55.5t7 46.5t12.5 41.5t14 33.5t17 30t16 23.5t17 21.5t14 18q44 55 60 89t16 69q0 180 -328 180h-146z" />
<glyph unicode="|" d="M582 -283v1839h65v-1839h-65z" />
<glyph unicode="}" d="M231 -225h404v223q0 63 -14.5 113.5t-28.5 72t-37 49.5q-4 5 -6 7q-49 63 -69.5 104.5t-20.5 85.5q0 88 65.5 142t173.5 63v4q-108 9 -173.5 63t-65.5 142q0 44 20.5 85.5t69.5 104.5q43 54 58 89q28 64 28 153v223h-404v57h383q86 0 86 -86v-196q0 -29 -3.5 -56t-7 -46 t-12.5 -41.5t-13.5 -33.5t-17 -30t-15.5 -23.5t-17 -21.5l-14 -18q-44 -55 -60 -89t-16 -69q0 -180 328 -180h145v-58h-145q-328 0 -328 -180q0 -35 16 -69t60 -89l14 -18q14 -17 17 -21.5t15.5 -23.5t17 -30t13.5 -33.5t12.5 -41.5t7 -46t3.5 -56v-197q0 -86 -86 -86h-383 v58z" />
<glyph unicode="~" d="M129 631q51 51 105.5 75.5t127.5 24.5q58 0 112 -17t153 -61q92 -41 141 -57t102 -16q58 0 101.5 18.5t91.5 63.5l37 -46q-51 -51 -106 -75.5t-128 -24.5q-57 0 -111 17t-153 61q-93 42 -142 58t-102 16q-58 0 -101 -18.5t-91 -63.5z" />
<glyph unicode="&#xa0;" />
<glyph unicode="&#xa1;" d="M526 979v20q0 72 88 72t88 -72v-20q0 -72 -88 -72t-88 72zM575 170l23 500h33l22 -500v-541h-78v541z" />
<glyph unicode="&#xa2;" d="M213 528q0 251 103 392.5t292 158.5v211h62v-209q132 -3 223 -66t129 -167l-61 -25q-36 91 -110.5 141.5t-182.5 53.5v-979q222 6 313 205l55 -33q-42 -102 -137 -167.5t-229 -68.5v-208h-62v210q-189 17 -292 158.5t-103 392.5zM291 469q0 -185 82.5 -298t234.5 -128 v971q-152 -15 -234.5 -128t-82.5 -298v-119z" />
<glyph unicode="&#xa3;" d="M129 627v63h176q-7 22 -28 80t-31 88.5t-19.5 81.5t-9.5 98q0 190 123 303t324 113q288 0 426 -231l-62 -39q-120 202 -366 202q-170 0 -268.5 -91t-98.5 -259q0 -46 10.5 -99t17 -76.5t32 -93t28.5 -77.5h444v-63h-426q23 -94 23 -162q0 -121 -49.5 -222t-136.5 -167v-6 h843v-70h-919v90q88 58 138 153.5t50 215.5q0 81 -24 168h-197z" />
<glyph unicode="&#xa5;" d="M55 1430h84l473 -777h6l476 777h80l-484 -783h361v-63h-400v-521h400v-63h-873v63h400v521h-400v63h361z" />
<glyph unicode="&#xa6;" d="M582 -283v736h65v-736h-65zM582 821v735h65v-735h-65z" />
<glyph unicode="&#xa7;" d="M195 594q0 109 61.5 185.5t171.5 119.5v6q-152 92 -152 252q0 144 101.5 220.5t265.5 76.5q202 0 324 -115l-43 -51q-110 103 -283 103q-139 0 -217 -60.5t-78 -173.5q0 -52 19 -92.5t55 -69t76.5 -48t95.5 -36.5l135 -43q157 -48 233 -123t76 -202q0 -213 -233 -303v-7 q151 -91 151 -251q0 -144 -102 -220.5t-264 -76.5q-203 0 -324 114l43 49q111 -100 283 -100q138 0 216.5 60.5t78.5 173.5q0 51 -19 91.5t-55 69t-76.5 48t-95.5 36.5l-135 43q-156 48 -232.5 123.5t-76.5 200.5zM264 606q0 -110 65.5 -172t207.5 -104l133 -41 q37 -12 88 -33q207 93 207 276q0 110 -64.5 172t-206.5 105l-133 41q-22 6 -88 33q-209 -95 -209 -277z" />
<glyph unicode="&#xa8;" d="M354 1372v21q0 57 74 57q72 0 72 -57v-21q0 -57 -72 -57q-74 0 -74 57zM729 1372v21q0 57 72 57q73 0 73 -57v-21q0 -57 -73 -57q-72 0 -72 57z" />
<glyph unicode="&#xa9;" d="M8 715q0 153 47 281.5t129 215t193 134t237 47.5t237 -47.5t193 -134t129.5 -215t47.5 -281.5t-47.5 -281.5t-129.5 -215t-193 -134t-237 -47.5t-237 47.5t-193 134t-129 215t-47 281.5zM70 674q0 -164 70.5 -297.5t195.5 -210t278 -76.5t278 76.5t196 210t71 297.5v82 q0 164 -71 297.5t-196 209.5t-278 76t-278 -76t-195.5 -209.5t-70.5 -297.5v-82zM344 715q0 161 74 249.5t203 88.5q83 0 139 -37t80 -101l-49 -22q-47 106 -170 106q-98 0 -154.5 -67t-56.5 -187v-59q0 -125 56.5 -190.5t154.5 -65.5q126 0 180 115l49 -27 q-29 -63 -89 -102t-143 -39q-127 0 -200.5 88.5t-73.5 249.5z" />
<glyph unicode="&#xaa;" d="M311 934q0 190 273 190h186v101q0 88 -50 133t-142 45q-147 0 -201 -117l-43 29q63 139 246 139q118 0 183.5 -58.5t65.5 -164.5v-420h93v-53h-93q-57 0 -57 55v45h-6q-26 -50 -82.5 -82.5t-146.5 -32.5q-108 0 -167 51t-59 140zM375 924q0 -62 45.5 -95.5t122.5 -33.5 q96 0 161.5 45t65.5 125v110h-188q-105 0 -156 -33.5t-51 -91.5v-26z" />
<glyph unicode="&#xab;" d="M166 514v72l436 368l25 -51l-383 -354l383 -352l-25 -52zM612 514v72l437 368l24 -51l-383 -354l383 -352l-24 -52z" />
<glyph unicode="&#xac;" d="M127 594v63h942v-456h-65v393h-877z" />
<glyph unicode="&#xad;" d="M338 588v71h553v-71h-553z" />
<glyph unicode="&#xae;" d="M244 1081q0 160 107 266.5t263 106.5t263.5 -106.5t107.5 -266.5t-107 -266t-264 -106q-156 0 -263 106t-107 266zM295 1065q0 -132 92.5 -222.5t226.5 -90.5t227 90.5t93 222.5v33q0 132 -93 222.5t-227 90.5t-226.5 -90.5t-92.5 -222.5v-33zM500 893v379h145 q55 0 86 -28.5t31 -84.5q0 -46 -25.5 -73.5t-68.5 -32.5l106 -160h-51l-98 156h-82v-156h-43zM543 1083h96q41 0 59.5 16.5t18.5 53.5v14q0 70 -78 70h-96v-154z" />
<glyph unicode="&#xaf;" d="M344 1354v61h541v-61h-541z" />
<glyph unicode="&#xb0;" d="M293 1133q0 138 92 229.5t229 91.5t229.5 -91.5t92.5 -229.5t-92.5 -231t-229.5 -93t-229 93t-92 231zM358 1133q0 -112 72 -187.5t184 -75.5t184 75.5t72 187.5t-71.5 186t-184.5 74t-184.5 -74t-71.5 -186z" />
<glyph unicode="&#xb1;" d="M127 0v63h975v-63h-975zM127 715v63h453v463h69v-463h453v-63h-453v-461h-69v461h-453z" />
<glyph unicode="&#xb2;" d="M342 1257q27 82 95 133.5t175 51.5q116 0 179 -61t63 -156q0 -77 -46.5 -148.5t-143.5 -150.5l-250 -201h467v-51h-531v59l279 230q162 134 162 247v19q0 73 -47 117.5t-134 44.5q-163 0 -215 -152z" />
<glyph unicode="&#xb3;" d="M340 780l45 35q39 -51 86 -76.5t123 -25.5q98 0 149.5 43.5t51.5 122.5v12q0 74 -46.5 111.5t-148.5 37.5h-104v52h92q192 0 192 149v10q0 65 -45 102.5t-129 37.5q-71 0 -117.5 -24t-80.5 -71l-43 33q77 113 241 113q110 0 175 -53t65 -142q0 -71 -40 -115.5t-108 -60.5 v-6q76 -12 118 -58.5t42 -123.5q0 -102 -69.5 -161.5t-194.5 -59.5q-162 0 -254 118z" />
<glyph unicode="&#xb4;" d="M541 1243l215 324l65 -35l-231 -315z" />
<glyph unicode="&#xb5;" d="M238 -410v1467h71v-664q0 -176 77 -265t224 -89q129 0 219.5 68.5t90.5 193.5v756h71v-1057h-71v156h-9q-33 -79 -110.5 -130t-202.5 -51q-221 0 -289 189h-8l8 -236v-338h-71z" />
<glyph unicode="&#xb6;" d="M127 967q0 202 129.5 332.5t331.5 130.5h395v-1735h-70v1673h-241v-1673h-70v809q-212 0 -343.5 130t-131.5 333z" />
<glyph unicode="&#xb7;" d="M526 612v21q0 72 88 72t88 -72v-21q0 -71 -88 -71t-88 71z" />
<glyph unicode="&#xb8;" d="M461 -346l39 41q47 -57 135 -57q54 0 85.5 25t31.5 71q0 84 -127 92l-72 6l41 182h53l-37 -157l4 -4q30 6 66 6q61 0 99 -33.5t38 -89.5q0 -67 -50.5 -109.5t-131.5 -42.5q-60 0 -106 20t-68 50z" />
<glyph unicode="&#xb9;" d="M344 1280l287 150h69v-705h232v-51h-547v51h254v651l-270 -139z" />
<glyph unicode="&#xba;" d="M315 1098q0 163 79.5 259.5t219.5 96.5t219.5 -96.5t79.5 -259.5t-79.5 -260t-219.5 -97t-219.5 97t-79.5 260zM383 1059q0 -114 60.5 -190t170.5 -76t171 76t61 190v82q0 111 -61.5 186.5t-170.5 75.5t-170 -75t-61 -187v-82z" />
<glyph unicode="&#xbb;" d="M156 197l383 352l-383 354l24 51l436 -368v-72l-436 -369zM602 197l383 352l-383 354l25 51l436 -368v-72l-436 -369z" />
<glyph unicode="&#xbc;" d="M45 1296l254 134h68v-635h204v-52h-491v52h227v579l-239 -121zM53 0l373 614h68l-373 -614h-68zM647 156v57l350 473h82v-481h115v-49h-115v-156h-59v156h-373zM700 205h320v424h-6zM735 815l373 615h68l-373 -615h-68z" />
<glyph unicode="&#xbd;" d="M45 1296l254 134h68v-635h204v-52h-491v52h227v579l-239 -121zM53 0l373 614h68l-373 -614h-68zM674 530q55 168 244 168q105 0 164 -53t59 -141q0 -69 -41 -132.5t-127 -135.5l-219 -185h413v-51h-481v55l254 219q137 120 137 218v16q0 63 -40 101t-122 38 q-78 0 -121 -34.5t-67 -100.5zM735 815l373 615h68l-373 -615h-68z" />
<glyph unicode="&#xbe;" d="M53 0l373 614h68l-373 -614h-68zM57 844l45 35q66 -97 189 -97q85 0 131.5 39t46.5 109v12q0 133 -176 133h-94v51h84q172 0 172 129v15q0 55 -41.5 88t-116.5 33q-117 0 -180 -86l-41 34q75 103 225 103q99 0 157 -48t58 -128q0 -64 -35.5 -105t-97.5 -53v-6 q147 -28 147 -168q0 -95 -63 -149t-176 -54q-154 0 -234 113zM647 156v57l350 473h82v-481h115v-49h-115v-156h-59v156h-373zM700 205h320v424h-6zM735 815l373 615h68l-373 -615h-68z" />
<glyph unicode="&#xbf;" d="M205 -27q0 175 113.5 283.5t302.5 130.5v291h73v-346q-193 -9 -302 -99t-109 -239v-35q0 -134 85 -212.5t234 -78.5q140 0 236.5 75t134.5 214l69 -23q-47 -155 -161.5 -243t-280.5 -88q-182 0 -288.5 101t-106.5 269zM567 977v20q0 33 22.5 52.5t65.5 19.5 q44 0 67 -19.5t23 -52.5v-20q0 -33 -23 -52.5t-67 -19.5q-43 0 -65.5 19.5t-22.5 52.5z" />
<glyph unicode="&#xc0;" d="M96 0l469 1430h101l467 -1430h-78l-152 463h-577l-152 -463h-78zM344 528h541l-267 820h-10zM406 1880l65 35l215 -324l-49 -26z" />
<glyph unicode="&#xc1;" d="M96 0l469 1430h101l467 -1430h-78l-152 463h-577l-152 -463h-78zM344 528h541l-267 820h-10zM541 1591l215 324l65 -35l-231 -315z" />
<glyph unicode="&#xc2;" d="M96 0l469 1430h101l467 -1430h-78l-152 463h-577l-152 -463h-78zM317 1618l254 278h86l254 -278l-43 -31l-254 256l-254 -256zM344 528h541l-267 820h-10z" />
<glyph unicode="&#xc3;" d="M96 0l469 1430h101l467 -1430h-78l-152 463h-577l-152 -463h-78zM299 1726q76 89 170 89q61 0 158 -60q84 -51 137 -51q68 0 131 63l35 -36q-76 -89 -170 -89q-61 0 -158 60q-84 51 -137 51q-68 0 -131 -63zM344 528h541l-267 820h-10z" />
<glyph unicode="&#xc4;" d="M96 0l469 1430h101l467 -1430h-78l-152 463h-577l-152 -463h-78zM344 528h541l-267 820h-10zM354 1720v21q0 57 74 57q72 0 72 -57v-21q0 -57 -72 -57q-74 0 -74 57zM729 1720v21q0 57 72 57q73 0 73 -57v-21q0 -57 -73 -57q-72 0 -72 57z" />
<glyph unicode="&#xc5;" d="M96 0l469 1430h101l467 -1430h-78l-152 463h-577l-152 -463h-78zM344 528h541l-267 820h-10zM418 1761q0 88 54.5 143.5t141.5 55.5q88 0 142.5 -55.5t54.5 -143.5t-54.5 -142t-142.5 -54t-142 54t-54 142zM477 1749q0 -61 37 -97t100 -36t100.5 36t37.5 97v27 q0 60 -37.5 96.5t-100.5 36.5t-100 -36.5t-37 -96.5v-27z" />
<glyph unicode="&#xc6;" d="M70 0l448 1430h612v-66h-397v-606h369v-66h-369v-626h397v-66h-468v463h-371l-141 -463h-80zM309 526h353v844h-91z" />
<glyph unicode="&#xc7;" d="M158 715q0 378 128 558.5t380 180.5q150 0 252.5 -79.5t152.5 -215.5l-65 -26q-41 119 -127 186t-213 67q-211 0 -319.5 -150.5t-108.5 -442.5v-156q0 -292 108.5 -443t319.5 -151q127 0 213 67.5t127 186.5l65 -27q-50 -135 -152 -214.5t-251 -80.5h-6l-27 -118l4 -4 q30 6 66 6q61 0 99 -33.5t38 -89.5q0 -66 -51 -109t-132 -43q-61 0 -107.5 20t-66.5 50l39 41q44 -57 135 -57q54 0 85.5 25t31.5 71q0 84 -127 92l-71 6l34 145q-226 19 -340 199t-114 539z" />
<glyph unicode="&#xc8;" d="M213 0v1430h842v-68h-768v-602h741v-68h-741v-624h768v-68h-842zM422 1880l65 35l215 -324l-49 -26z" />
<glyph unicode="&#xc9;" d="M213 0v1430h842v-68h-768v-602h741v-68h-741v-624h768v-68h-842zM557 1591l215 324l66 -35l-232 -315z" />
<glyph unicode="&#xca;" d="M213 0v1430h842v-68h-768v-602h741v-68h-741v-624h768v-68h-842zM334 1618l254 278h86l254 -278l-43 -31l-254 256l-254 -256z" />
<glyph unicode="&#xcb;" d="M213 0v1430h842v-68h-768v-602h741v-68h-741v-624h768v-68h-842zM371 1720v21q0 57 73 57q72 0 72 -57v-21q0 -57 -72 -57q-73 0 -73 57zM745 1720v21q0 57 72 57q74 0 74 -57v-21q0 -57 -74 -57q-72 0 -72 57z" />
<glyph unicode="&#xcc;" d="M184 0v61h394v1307h-394v62h860v-62h-393v-1307h393v-61h-860zM406 1880l65 35l215 -324l-49 -26z" />
<glyph unicode="&#xcd;" d="M184 0v61h394v1307h-394v62h860v-62h-393v-1307h393v-61h-860zM541 1591l215 324l65 -35l-231 -315z" />
<glyph unicode="&#xce;" d="M184 0v61h394v1307h-394v62h860v-62h-393v-1307h393v-61h-860zM317 1618l254 278h86l254 -278l-43 -31l-254 256l-254 -256z" />
<glyph unicode="&#xcf;" d="M184 0v61h394v1307h-394v62h860v-62h-393v-1307h393v-61h-860zM354 1720v21q0 57 74 57q72 0 72 -57v-21q0 -57 -72 -57q-74 0 -74 57zM729 1720v21q0 57 72 57q73 0 73 -57v-21q0 -57 -73 -57q-72 0 -72 57z" />
<glyph unicode="&#xd0;" d="M61 725v61h187v644h344q255 0 375 -178t120 -537t-120 -537t-375 -178h-344v725h-187zM322 68h270q210 0 313 148t103 423v152q0 275 -103 423t-313 148h-270v-576h348v-61h-348v-657z" />
<glyph unicode="&#xd1;" d="M193 0v1430h106l659 -1328h9v1328h69v-1430h-106l-660 1331h-8v-1331h-69zM299 1726q76 89 170 89q61 0 158 -60q84 -51 137 -51q68 0 131 63l35 -36q-76 -89 -170 -89q-61 0 -158 60q-84 51 -137 51q-68 0 -131 -63z" />
<glyph unicode="&#xd2;" d="M137 715q0 377 120 558t357 181t357.5 -181t120.5 -558q0 -740 -478 -740q-237 0 -357 181.5t-120 558.5zM219 637q0 -293 99.5 -443.5t295.5 -150.5t296 151t100 443v156q0 292 -100 442.5t-296 150.5t-295.5 -150t-99.5 -443v-156zM406 1880l65 35l215 -324l-49 -26z " />
<glyph unicode="&#xd3;" d="M137 715q0 377 120 558t357 181t357.5 -181t120.5 -558q0 -740 -478 -740q-237 0 -357 181.5t-120 558.5zM219 637q0 -293 99.5 -443.5t295.5 -150.5t296 151t100 443v156q0 292 -100 442.5t-296 150.5t-295.5 -150t-99.5 -443v-156zM541 1591l215 324l65 -35l-231 -315z " />
<glyph unicode="&#xd4;" d="M137 715q0 377 120 558t357 181t357.5 -181t120.5 -558q0 -740 -478 -740q-237 0 -357 181.5t-120 558.5zM219 637q0 -293 99.5 -443.5t295.5 -150.5t296 151t100 443v156q0 292 -100 442.5t-296 150.5t-295.5 -150t-99.5 -443v-156zM317 1618l254 278h86l254 -278 l-43 -31l-254 256l-254 -256z" />
<glyph unicode="&#xd5;" d="M137 715q0 377 120 558t357 181t357.5 -181t120.5 -558q0 -740 -478 -740q-237 0 -357 181.5t-120 558.5zM219 637q0 -293 99.5 -443.5t295.5 -150.5t296 151t100 443v156q0 292 -100 442.5t-296 150.5t-295.5 -150t-99.5 -443v-156zM299 1726q76 89 170 89q61 0 158 -60 q84 -51 137 -51q68 0 131 63l35 -36q-76 -89 -170 -89q-61 0 -158 60q-84 51 -137 51q-68 0 -131 -63z" />
<glyph unicode="&#xd6;" d="M137 715q0 377 120 558t357 181t357.5 -181t120.5 -558q0 -740 -478 -740q-237 0 -357 181.5t-120 558.5zM219 637q0 -293 99.5 -443.5t295.5 -150.5t296 151t100 443v156q0 292 -100 442.5t-296 150.5t-295.5 -150t-99.5 -443v-156zM354 1720v21q0 57 74 57q72 0 72 -57 v-21q0 -57 -72 -57q-74 0 -74 57zM729 1720v21q0 57 72 57q73 0 73 -57v-21q0 -57 -73 -57q-72 0 -72 57z" />
<glyph unicode="&#xd7;" d="M207 262l362 363l-362 362l45 45l362 -362l363 362l45 -45l-363 -362l363 -363l-45 -45l-363 363l-362 -363z" />
<glyph unicode="&#xd8;" d="M137 715q0 377 120 558t357 181q208 0 322 -135l92 158l55 -31l-106 -182q115 -183 115 -549q0 -740 -478 -740q-206 0 -321 136l-92 -158l-56 31l107 182q-115 183 -115 549zM219 637q0 -257 78 -401l600 1017q-100 133 -283 133q-196 0 -295.5 -150t-99.5 -443v-156z M332 176q100 -133 282 -133q196 0 296 151t100 443v156q0 257 -78 401z" />
<glyph unicode="&#xd9;" d="M193 571v859h73v-869q0 -152 14.5 -245.5t53.5 -157.5t106 -89.5t174 -25.5t174 25.5t106.5 89.5t54 157.5t14.5 245.5v869h73v-859q0 -171 -19 -280.5t-68 -182.5t-129 -103t-206 -30t-206 30t-128.5 103t-67.5 182t-19 281zM406 1880l65 35l215 -324l-49 -26z" />
<glyph unicode="&#xda;" d="M193 571v859h73v-869q0 -152 14.5 -245.5t53.5 -157.5t106 -89.5t174 -25.5t174 25.5t106.5 89.5t54 157.5t14.5 245.5v869h73v-859q0 -171 -19 -280.5t-68 -182.5t-129 -103t-206 -30t-206 30t-128.5 103t-67.5 182t-19 281zM541 1591l215 324l65 -35l-231 -315z" />
<glyph unicode="&#xdb;" d="M193 571v859h73v-869q0 -152 14.5 -245.5t53.5 -157.5t106 -89.5t174 -25.5t174 25.5t106.5 89.5t54 157.5t14.5 245.5v869h73v-859q0 -171 -19 -280.5t-68 -182.5t-129 -103t-206 -30t-206 30t-128.5 103t-67.5 182t-19 281zM317 1618l254 278h86l254 -278l-43 -31 l-254 256l-254 -256z" />
<glyph unicode="&#xdc;" d="M193 571v859h73v-869q0 -152 14.5 -245.5t53.5 -157.5t106 -89.5t174 -25.5t174 25.5t106.5 89.5t54 157.5t14.5 245.5v869h73v-859q0 -171 -19 -280.5t-68 -182.5t-129 -103t-206 -30t-206 30t-128.5 103t-67.5 182t-19 281zM354 1720v21q0 57 74 57q72 0 72 -57v-21 q0 -57 -72 -57q-74 0 -74 57zM729 1720v21q0 57 72 57q73 0 73 -57v-21q0 -57 -73 -57q-72 0 -72 57z" />
<glyph unicode="&#xdd;" d="M51 1430h86l475 -760h6l476 760h84l-527 -838v-592h-73v592zM541 1591l215 324l65 -35l-231 -315z" />
<glyph unicode="&#xde;" d="M213 0v1430h74v-314h430q178 0 273 -103.5t95 -285.5q0 -183 -95 -289t-273 -106h-430v-332h-74zM287 399h430q139 0 214 81t75 202v90q0 119 -74.5 198t-214.5 79h-430v-650z" />
<glyph unicode="&#xdf;" d="M268 0v1413q0 103 101 103h405v-64h-434v-395h741v-70l-438 -559q258 -3 388 -101t130 -307q0 -212 -136 -321t-394 -109h-131v64h131q224 0 338 85.5t114 254.5v59q0 165 -118 240.5t-344 75.5h-52v65l441 559h-670v-993h-72z" />
<glyph unicode="&#xe0;" d="M154 274q0 142 96 220.5t319 78.5h289v152q0 146 -77.5 219.5t-217.5 73.5q-113 0 -196 -47.5t-125 -143.5l-54 35q45 101 140.5 160t236.5 59q171 0 268 -92t97 -256v-670h168v-63h-148q-87 0 -90 86v76h-8q-40 -85 -125 -136t-219 -51q-169 0 -261.5 78t-92.5 221z M231 244q0 -98 77 -152.5t206 -54.5q146 0 245 71t99 195v213h-287q-340 0 -340 -211v-61zM358 1532l66 35l215 -324l-49 -26z" />
<glyph unicode="&#xe1;" d="M154 274q0 142 96 220.5t319 78.5h289v152q0 146 -77.5 219.5t-217.5 73.5q-113 0 -196 -47.5t-125 -143.5l-54 35q45 101 140.5 160t236.5 59q171 0 268 -92t97 -256v-670h168v-63h-148q-87 0 -90 86v76h-8q-40 -85 -125 -136t-219 -51q-169 0 -261.5 78t-92.5 221z M231 244q0 -98 77 -152.5t206 -54.5q146 0 245 71t99 195v213h-287q-340 0 -340 -211v-61zM494 1243l215 324l65 -35l-231 -315z" />
<glyph unicode="&#xe2;" d="M154 274q0 142 96 220.5t319 78.5h289v152q0 146 -77.5 219.5t-217.5 73.5q-113 0 -196 -47.5t-125 -143.5l-54 35q45 101 140.5 160t236.5 59q171 0 268 -92t97 -256v-670h168v-63h-148q-87 0 -90 86v76h-8q-40 -85 -125 -136t-219 -51q-169 0 -261.5 78t-92.5 221z M231 244q0 -98 77 -152.5t206 -54.5q146 0 245 71t99 195v213h-287q-340 0 -340 -211v-61zM270 1270l254 278h86l254 -278l-43 -31l-254 256l-254 -256z" />
<glyph unicode="&#xe3;" d="M154 274q0 142 96 220.5t319 78.5h289v152q0 146 -77.5 219.5t-217.5 73.5q-113 0 -196 -47.5t-125 -143.5l-54 35q45 101 140.5 160t236.5 59q171 0 268 -92t97 -256v-670h168v-63h-148q-87 0 -90 86v76h-8q-40 -85 -125 -136t-219 -51q-169 0 -261.5 78t-92.5 221z M231 244q0 -98 77 -152.5t206 -54.5q146 0 245 71t99 195v213h-287q-340 0 -340 -211v-61zM252 1378q75 88 170 88q63 0 158 -59q84 -51 137 -51q68 0 131 63l35 -37q-75 -88 -170 -88q-61 0 -158 60q-84 51 -137 51q-67 0 -131 -64z" />
<glyph unicode="&#xe4;" d="M154 274q0 142 96 220.5t319 78.5h289v152q0 146 -77.5 219.5t-217.5 73.5q-113 0 -196 -47.5t-125 -143.5l-54 35q45 101 140.5 160t236.5 59q171 0 268 -92t97 -256v-670h168v-63h-148q-87 0 -90 86v76h-8q-40 -85 -125 -136t-219 -51q-169 0 -261.5 78t-92.5 221z M231 244q0 -98 77 -152.5t206 -54.5q146 0 245 71t99 195v213h-287q-340 0 -340 -211v-61zM307 1372v21q0 57 74 57q72 0 72 -57v-21q0 -57 -72 -57q-74 0 -74 57zM682 1372v21q0 57 72 57q73 0 73 -57v-21q0 -57 -73 -57q-72 0 -72 57z" />
<glyph unicode="&#xe5;" d="M154 274q0 142 96 220.5t319 78.5h289v152q0 146 -77.5 219.5t-217.5 73.5q-113 0 -196 -47.5t-125 -143.5l-54 35q45 101 140.5 160t236.5 59q171 0 268 -92t97 -256v-670h168v-63h-148q-87 0 -90 86v76h-8q-40 -85 -125 -136t-219 -51q-169 0 -261.5 78t-92.5 221z M231 244q0 -98 77 -152.5t206 -54.5q146 0 245 71t99 195v213h-287q-340 0 -340 -211v-61zM371 1413q0 88 54.5 143.5t141.5 55.5q88 0 142.5 -55.5t54.5 -143.5t-54.5 -142t-142.5 -54t-142 54t-54 142zM430 1401q0 -61 37 -97t100 -36t100.5 36t37.5 97v26q0 60 -37.5 97 t-100.5 37t-100 -37t-37 -97v-26z" />
<glyph unicode="&#xe6;" d="M43 276q0 155 93 226t276 71h157v162q0 148 -57.5 217.5t-155.5 69.5q-159 0 -243 -176l-52 28q38 90 113 148.5t186 58.5q100 0 168.5 -56.5t87.5 -172.5h7q70 229 258 229q141 0 221 -126t80 -359v-78h-547v-39q0 -229 65.5 -335.5t173.5 -106.5q169 0 236 223l57 -22 q-36 -116 -109.5 -189.5t-185.5 -73.5q-98 0 -169.5 66t-102.5 197h-6q-20 -124 -94.5 -193.5t-190.5 -69.5q-119 0 -192.5 81.5t-73.5 219.5zM113 260q0 -101 55.5 -163t148.5 -62q119 0 185.5 82.5t66.5 214.5v186h-151q-156 0 -230.5 -52.5t-74.5 -170.5v-35zM635 573 h481v33q0 208 -64 313t-173 105t-176.5 -116t-67.5 -318v-17z" />
<glyph unicode="&#xe7;" d="M213 528q0 267 116.5 410t327.5 143q137 0 231 -63t134 -170l-61 -25q-35 94 -113.5 144.5t-190.5 50.5q-175 0 -270.5 -115.5t-95.5 -314.5v-119q0 -199 95.5 -314.5t270.5 -115.5q117 0 198.5 54t125.5 151l55 -33q-44 -103 -140 -169t-232 -67l-27 -118l4 -4 q30 6 66 6q61 0 99 -33.5t38 -89.5q0 -67 -50.5 -109.5t-131.5 -42.5q-60 0 -106.5 20t-68.5 50l39 41q47 -57 136 -57q54 0 85 25t31 71q0 84 -127 92l-71 6l32 145q-190 14 -294.5 156t-104.5 395z" />
<glyph unicode="&#xe8;" d="M176 528q0 265 117.5 409t324.5 144q209 0 324 -143.5t115 -386.5v-29h-803v-53q0 -199 98.5 -314.5t276.5 -115.5q258 0 350 237l57 -30q-47 -126 -152 -198.5t-255 -72.5q-214 0 -333.5 143.5t-119.5 409.5zM254 580h727v10q0 199 -96 314.5t-267 115.5t-267.5 -116.5 t-96.5 -315.5v-8zM410 1532l65 35l215 -324l-49 -26z" />
<glyph unicode="&#xe9;" d="M176 528q0 265 117.5 409t324.5 144q209 0 324 -143.5t115 -386.5v-29h-803v-53q0 -199 98.5 -314.5t276.5 -115.5q258 0 350 237l57 -30q-47 -126 -152 -198.5t-255 -72.5q-214 0 -333.5 143.5t-119.5 409.5zM254 580h727v10q0 199 -96 314.5t-267 115.5t-267.5 -116.5 t-96.5 -315.5v-8zM545 1243l215 324l65 -35l-231 -315z" />
<glyph unicode="&#xea;" d="M176 528q0 265 117.5 409t324.5 144q209 0 324 -143.5t115 -386.5v-29h-803v-53q0 -199 98.5 -314.5t276.5 -115.5q258 0 350 237l57 -30q-47 -126 -152 -198.5t-255 -72.5q-214 0 -333.5 143.5t-119.5 409.5zM254 580h727v10q0 199 -96 314.5t-267 115.5t-267.5 -116.5 t-96.5 -315.5v-8zM322 1270l253 278h87l253 -278l-43 -31l-254 256l-253 -256z" />
<glyph unicode="&#xeb;" d="M176 528q0 265 117.5 409t324.5 144q209 0 324 -143.5t115 -386.5v-29h-803v-53q0 -199 98.5 -314.5t276.5 -115.5q258 0 350 237l57 -30q-47 -126 -152 -198.5t-255 -72.5q-214 0 -333.5 143.5t-119.5 409.5zM254 580h727v10q0 199 -96 314.5t-267 115.5t-267.5 -116.5 t-96.5 -315.5v-8zM358 1372v21q0 57 74 57q72 0 72 -57v-21q0 -57 -72 -57q-74 0 -74 57zM733 1372v21q0 57 72 57q74 0 74 -57v-21q0 -57 -74 -57q-72 0 -72 57z" />
<glyph unicode="&#xec;" d="M233 0v63h412v930h-412v64h484v-994h385v-63h-869zM471 1532l66 35l215 -324l-50 -26z" />
<glyph unicode="&#xed;" d="M233 0v63h412v930h-412v64h484v-994h385v-63h-869zM606 1243l215 324l66 -35l-232 -315z" />
<glyph unicode="&#xee;" d="M233 0v63h412v930h-412v64h484v-994h385v-63h-869zM383 1270l254 278h86l254 -278l-43 -31l-254 256l-254 -256z" />
<glyph unicode="&#xef;" d="M233 0v63h412v930h-412v64h484v-994h385v-63h-869zM420 1372v21q0 57 74 57q71 0 71 -57v-21q0 -57 -71 -57q-74 0 -74 57zM795 1372v21q0 57 71 57q74 0 74 -57v-21q0 -57 -74 -57q-71 0 -71 57z" />
<glyph unicode="&#xf0;" d="M172 508q0 247 118.5 388.5t313.5 141.5q212 0 332 -180l6 4q-117 274 -307 445l-211 -152l-35 43l205 143q-106 90 -254 175h117q94 -58 188 -136l221 160l35 -43l-215 -156q76 -69 139 -149t117 -182t84.5 -228.5t30.5 -265.5q0 -257 -119.5 -399t-321.5 -142 q-203 0 -323.5 142t-120.5 391zM250 455q0 -192 101 -304t263 -112t263.5 112t101.5 304v104q0 192 -101.5 304t-263.5 112t-263 -112t-101 -304v-104z" />
<glyph unicode="&#xf1;" d="M246 0v1057h71v-156h7q33 78 112 129t207 51q172 0 265 -102t93 -293v-686h-71v674q0 344 -303 344q-129 0 -219.5 -68.5t-90.5 -193.5v-756h-71zM309 1378q75 88 170 88q63 0 158 -59q84 -51 137 -51q68 0 131 63l35 -37q-75 -88 -170 -88q-61 0 -158 60q-84 51 -137 51 q-67 0 -131 -64z" />
<glyph unicode="&#xf2;" d="M172 528q0 266 116.5 409.5t325.5 143.5t326 -143.5t117 -409.5t-117 -409.5t-326 -143.5t-325.5 143.5t-116.5 409.5zM250 473q0 -205 95.5 -319.5t268.5 -114.5t269 115t96 319v111q0 204 -96 319t-269 115t-268.5 -114.5t-95.5 -319.5v-111zM406 1532l65 35l215 -324 l-49 -26z" />
<glyph unicode="&#xf3;" d="M172 528q0 266 116.5 409.5t325.5 143.5t326 -143.5t117 -409.5t-117 -409.5t-326 -143.5t-325.5 143.5t-116.5 409.5zM250 473q0 -205 95.5 -319.5t268.5 -114.5t269 115t96 319v111q0 204 -96 319t-269 115t-268.5 -114.5t-95.5 -319.5v-111zM541 1243l215 324l65 -35 l-231 -315z" />
<glyph unicode="&#xf4;" d="M172 528q0 266 116.5 409.5t325.5 143.5t326 -143.5t117 -409.5t-117 -409.5t-326 -143.5t-325.5 143.5t-116.5 409.5zM250 473q0 -205 95.5 -319.5t268.5 -114.5t269 115t96 319v111q0 204 -96 319t-269 115t-268.5 -114.5t-95.5 -319.5v-111zM317 1270l254 278h86 l254 -278l-43 -31l-254 256l-254 -256z" />
<glyph unicode="&#xf5;" d="M172 528q0 266 116.5 409.5t325.5 143.5t326 -143.5t117 -409.5t-117 -409.5t-326 -143.5t-325.5 143.5t-116.5 409.5zM250 473q0 -205 95.5 -319.5t268.5 -114.5t269 115t96 319v111q0 204 -96 319t-269 115t-268.5 -114.5t-95.5 -319.5v-111zM299 1378q75 88 170 88 q63 0 158 -59q84 -51 137 -51q68 0 131 63l35 -37q-75 -88 -170 -88q-61 0 -158 60q-84 51 -137 51q-67 0 -131 -64z" />
<glyph unicode="&#xf6;" d="M172 528q0 266 116.5 409.5t325.5 143.5t326 -143.5t117 -409.5t-117 -409.5t-326 -143.5t-325.5 143.5t-116.5 409.5zM250 473q0 -205 95.5 -319.5t268.5 -114.5t269 115t96 319v111q0 204 -96 319t-269 115t-268.5 -114.5t-95.5 -319.5v-111zM354 1372v21q0 57 74 57 q72 0 72 -57v-21q0 -57 -72 -57q-74 0 -74 57zM729 1372v21q0 57 72 57q73 0 73 -57v-21q0 -57 -73 -57q-72 0 -72 57z" />
<glyph unicode="&#xf7;" d="M127 594v63h975v-63h-975zM530 217v23q0 65 84 65t84 -65v-23q0 -30 -21 -47.5t-63 -17.5t-63 17.5t-21 47.5zM530 1010v24q0 30 21.5 48t62.5 18t62.5 -18t21.5 -48v-24q0 -30 -21.5 -48t-62.5 -18t-62.5 18t-21.5 48z" />
<glyph unicode="&#xf8;" d="M127 -27l141 174q-96 140 -96 381q0 266 116.5 409.5t325.5 143.5q197 0 312 -127l131 162l45 -33l-141 -174q96 -140 96 -381q0 -266 -117 -409.5t-326 -143.5q-196 0 -311 127l-131 -161zM250 473q0 -161 63 -272l570 702q-95 115 -269 115q-173 0 -268.5 -114.5 t-95.5 -319.5v-111zM346 154q95 -115 268 -115t269 115t96 319v111q0 160 -64 272z" />
<glyph unicode="&#xf9;" d="M227 371v686h72v-674q0 -344 303 -344q129 0 219 68.5t90 193.5v756h72v-1057h-72v156h-6q-33 -78 -112 -129.5t-207 -51.5q-172 0 -265.5 102.5t-93.5 293.5zM397 1532l66 35l215 -324l-49 -26z" />
<glyph unicode="&#xfa;" d="M227 371v686h72v-674q0 -344 303 -344q129 0 219 68.5t90 193.5v756h72v-1057h-72v156h-6q-33 -78 -112 -129.5t-207 -51.5q-172 0 -265.5 102.5t-93.5 293.5zM532 1243l216 324l65 -35l-231 -315z" />
<glyph unicode="&#xfb;" d="M227 371v686h72v-674q0 -344 303 -344q129 0 219 68.5t90 193.5v756h72v-1057h-72v156h-6q-33 -78 -112 -129.5t-207 -51.5q-172 0 -265.5 102.5t-93.5 293.5zM309 1270l254 278h86l254 -278l-43 -31l-254 256l-254 -256z" />
<glyph unicode="&#xfc;" d="M227 371v686h72v-674q0 -344 303 -344q129 0 219 68.5t90 193.5v756h72v-1057h-72v156h-6q-33 -78 -112 -129.5t-207 -51.5q-172 0 -265.5 102.5t-93.5 293.5zM346 1372v21q0 57 74 57q72 0 72 -57v-21q0 -57 -72 -57q-74 0 -74 57zM721 1372v21q0 57 72 57q73 0 73 -57 v-21q0 -57 -73 -57q-72 0 -72 57z" />
<glyph unicode="&#xfd;" d="M156 1057h75l381 -930h6l381 930h74l-577 -1395q-29 -72 -113 -72h-197v64h234l158 381zM537 1243l215 324l65 -35l-231 -315z" />
<glyph unicode="&#xfe;" d="M242 -410v1926h71v-621h6q41 80 125.5 133t208.5 53q198 0 310 -138t112 -415t-112 -415t-310 -138q-124 0 -208.5 53t-125.5 134h-6v-572h-71zM313 303q0 -116 95 -190t227 -74q167 0 264.5 111t97.5 313v131q0 203 -97 313.5t-265 110.5q-132 0 -227 -74t-95 -190v-451 z" />
<glyph unicode="&#xff;" d="M156 1057h75l381 -930h6l381 930h74l-577 -1395q-29 -72 -113 -72h-197v64h234l158 381zM350 1372v21q0 57 74 57q72 0 72 -57v-21q0 -57 -72 -57q-74 0 -74 57zM725 1372v21q0 57 72 57q73 0 73 -57v-21q0 -57 -73 -57q-72 0 -72 57z" />
<glyph unicode="&#x152;" d="M113 715q0 359 120 537t375 178h527v-66h-396v-606h367v-66h-367v-626h396v-66h-527q-255 0 -375 178t-120 537zM193 639q0 -276 102.5 -424.5t312.5 -148.5h58v1298h-58q-210 0 -312.5 -148.5t-102.5 -424.5v-152z" />
<glyph unicode="&#x153;" d="M45 528q0 277 78.5 415t220.5 138q99 0 169 -68t99 -202h6q30 135 100 202.5t169 67.5q139 0 217 -126.5t78 -358.5v-78h-535v-61q0 -217 64.5 -318.5t173.5 -101.5q83 0 139.5 59.5t85.5 163.5l57 -22q-33 -113 -104.5 -188t-179.5 -75q-215 0 -271 267h-6 q-26 -131 -95 -199t-167 -68q-142 0 -220.5 138t-78.5 415zM117 459q0 -211 62.5 -317.5t168.5 -106.5t169 107t63 317v139q0 210 -63 317t-169 107t-168.5 -106.5t-62.5 -317.5v-139zM647 573h469v33q0 208 -62 313t-169 105q-108 0 -173 -107.5t-65 -316.5v-27z" />
<glyph unicode="&#x178;" d="M51 1430h86l475 -760h6l476 760h84l-527 -838v-592h-73v592zM354 1720v21q0 57 74 57q72 0 72 -57v-21q0 -57 -72 -57q-74 0 -74 57zM729 1720v21q0 57 72 57q73 0 73 -57v-21q0 -57 -73 -57q-72 0 -72 57z" />
<glyph unicode="&#x2c6;" d="M317 1270l254 278h86l254 -278l-43 -31l-254 256l-254 -256z" />
<glyph unicode="&#x2dc;" d="M299 1378q75 88 170 88q63 0 158 -59q84 -51 137 -51q68 0 131 63l35 -37q-75 -88 -170 -88q-61 0 -158 60q-84 51 -137 51q-67 0 -131 -64z" />
<glyph unicode="&#x2000;" horiz-adv-x="980" />
<glyph unicode="&#x2001;" horiz-adv-x="1960" />
<glyph unicode="&#x2002;" horiz-adv-x="980" />
<glyph unicode="&#x2003;" horiz-adv-x="1960" />
<glyph unicode="&#x2004;" horiz-adv-x="653" />
<glyph unicode="&#x2005;" horiz-adv-x="490" />
<glyph unicode="&#x2006;" horiz-adv-x="326" />
<glyph unicode="&#x2007;" horiz-adv-x="326" />
<glyph unicode="&#x2008;" horiz-adv-x="245" />
<glyph unicode="&#x2009;" horiz-adv-x="392" />
<glyph unicode="&#x200a;" horiz-adv-x="108" />
<glyph unicode="&#x2010;" d="M338 588v71h553v-71h-553z" />
<glyph unicode="&#x2011;" d="M338 588v71h553v-71h-553z" />
<glyph unicode="&#x2012;" d="M338 588v71h553v-71h-553z" />
<glyph unicode="&#x2013;" d="M123 592v65h983v-65h-983z" />
<glyph unicode="&#x2014;" d="M0 592v65h1229v-65h-1229z" />
<glyph unicode="&#x2018;" d="M473 991l178 525h60l-109 -525h-129z" />
<glyph unicode="&#x2019;" d="M518 991l109 525h129l-178 -525h-60z" />
<glyph unicode="&#x201a;" d="M459 -338l108 526h129l-178 -526h-59z" />
<glyph unicode="&#x201c;" d="M289 991l178 525h59l-108 -525h-129zM662 991l178 525h59l-108 -525h-129z" />
<glyph unicode="&#x201d;" d="M334 991l108 525h129l-178 -525h-59zM707 991l108 525h129l-178 -525h-59z" />
<glyph unicode="&#x201e;" d="M285 -338l108 526h129l-178 -526h-59zM657 -338l109 526h129l-178 -526h-60z" />
<glyph unicode="&#x2022;" d="M420 598v49q0 76 47.5 122t146.5 46t147 -46t48 -122v-49q0 -76 -48 -122t-147 -46t-146.5 46t-47.5 122z" />
<glyph unicode="&#x2026;" d="M172 57v27q0 30 20.5 49t63.5 19q82 0 82 -68v-27q0 -67 -82 -67q-43 0 -63.5 18.5t-20.5 48.5zM530 57v27q0 30 20.5 49t63.5 19t63.5 -19t20.5 -49v-27q0 -30 -20.5 -48.5t-63.5 -18.5t-63.5 18.5t-20.5 48.5zM891 57v27q0 68 82 68q43 0 63.5 -19t20.5 -49v-27 q0 -30 -20.5 -48.5t-63.5 -18.5q-82 0 -82 67z" />
<glyph unicode="&#x202f;" horiz-adv-x="392" />
<glyph unicode="&#x2039;" d="M344 514v72l436 368l25 -51l-383 -354l383 -352l-25 -52z" />
<glyph unicode="&#x203a;" d="M424 197l383 352l-383 354l25 51l436 -368v-72l-436 -369z" />
<glyph unicode="&#x205f;" horiz-adv-x="490" />
<glyph unicode="&#x20ac;" d="M158 715q0 378 128 558.5t380 180.5q150 0 252.5 -79.5t152.5 -215.5l-63 -26q-43 120 -129.5 188t-212.5 68q-192 0 -298.5 -124.5t-125.5 -367.5h516v-61h-518q-2 -14 -2 -50v-143q0 -41 2 -57h518v-62h-516q20 -237 127 -360t297 -123q126 0 212.5 68t129.5 188 l63 -27q-50 -136 -152.5 -215.5t-252.5 -79.5q-252 0 -380 181t-128 559z" />
<glyph unicode="&#x2122;" d="M33 1382v48h456v-48h-200v-508h-56v508h-200zM618 874v556h68l168 -330h6l170 330h64v-556h-50v478h-4l-184 -351l-184 351h-4v-478h-50z" />
<glyph unicode="&#x25fc;" horiz-adv-x="1054" d="M0 0v1055h1055v-1055h-1055z" />
<glyph unicode="&#xfb01;" d="M88 993v64h178v356q0 103 101 103h327v-64h-356v-395h645v-1057h-72v993h-573v-993h-72v993h-178zM872 1448v18q0 62 76 62t76 -62v-18q0 -62 -76 -62t-76 62z" />
<glyph unicode="&#xfb02;" d="M88 993v64h178v356q0 103 101 103h360v-64h-389v-395h387v-64h-387v-993h-72v993h-178zM911 0v1516h72v-1516h-72z" />
</font>
</defs>
</svg>
